<svg xmlns="http://www.w3.org/2000/svg" xmlns:xlink="http://www.w3.org/1999/xlink" viewBox="0 0 577.7 566.93"><defs><style>.cls-1{fill:url(#linear-gradient);}.cls-2{fill:url(#linear-gradient-2);}.cls-3{fill:url(#linear-gradient-3);}.cls-4{fill:url(#linear-gradient-4);}</style><linearGradient id="linear-gradient" x1="354.81" y1="734.6" x2="201.24" y2="724.27" gradientTransform="translate(36.9 -511.76)" gradientUnits="userSpaceOnUse"><stop offset="0" stop-color="#00c4ff"/><stop offset="1" stop-color="#001973"/></linearGradient><linearGradient id="linear-gradient-2" x1="293.21" y1="276.82" x2="209.42" y2="271.18" gradientTransform="translate(13.53 11.93)" gradientUnits="userSpaceOnUse"><stop offset="0" stop-color="#001973"/><stop offset="1" stop-color="#00c4ff"/></linearGradient><linearGradient id="linear-gradient-3" x1="1076" y1="3787.1" x2="922.44" y2="3776.77" gradientTransform="translate(1282.79 4149.91) rotate(180)" xlink:href="#linear-gradient"/><linearGradient id="linear-gradient-4" x1="1014.41" y1="3329.32" x2="930.61" y2="3323.68" gradientTransform="translate(1306.15 3626.22) rotate(180)" xlink:href="#linear-gradient-2"/></defs><title>favicon-spoil-u-nails</title><g id="graphics"><path class="cls-1" d="M374.09,170.88c.51,18.41-7.2,30.32-22.88,39.51-19.19,11.26-39,22.84-58.36,34-21.42,12.33-26.75,27.39-11.37,47.26-5,11-22.43,8.95-32.05,7.36-10.77-6.55-13.91-20.87-13.29-32.59.87-16.65,9.69-32.5,21.79-43.76Q315.88,178.93,374,135.44,374,153.16,374.09,170.88Z"/><path class="cls-2" d="M281.48,291.61s-2.34-1.89-6.19-5.33C257,270,233.19,244.83,257.93,222.62a106.81,106.81,0,0,0-20.85,21.5c-17.5,23.44-14.09,61.15-13.25,89.27.4,13.53,16.38,16.53,26.54,11.12,11.19-5.95,23.12-12.63,33.95-18.46C300.92,317.11,292.75,300.68,281.48,291.61Z"/><path class="cls-3" d="M224.4,414.77c-.51-18.41,7.19-30.32,22.88-39.51,19.2-11.25,39-22.84,58.36-34C327.05,329,332.39,313.9,317,294c5-11,22.43-9,32.05-7.36,10.77,6.55,13.9,20.87,13.29,32.59-.86,16.64-9.7,32.5-21.79,43.76q-57.94,43.7-116.06,87.18Q224.5,432.48,224.4,414.77Z"/><path class="cls-4" d="M317,294s2.34,1.89,6.19,5.33c18.27,16.28,42.1,41.45,17.36,63.66a106.75,106.75,0,0,0,20.84-21.5c17.51-23.44,14.11-61.15,13.26-89.27-.41-13.53-16.37-16.53-26.54-11.12-11.19,6-23.12,12.63-33.95,18.46C297.57,268.54,305.74,285,317,294Z"/></g></svg>